<svg width="67" height="55" viewBox="0 0 67 55" fill="none" xmlns="http://www.w3.org/2000/svg">
<path d="M65.125 47.625C65.125 49.15 64.5192 50.6125 63.4409 51.6909C62.3625 52.7692 60.9 53.375 59.375 53.375H7.625C6.10001 53.375 4.63747 52.7692 3.55914 51.6909C2.4808 50.6125 1.875 49.15 1.875 47.625V16C1.875 14.475 2.4808 13.0125 3.55914 11.9341C4.63747 10.8558 6.10001 10.25 7.625 10.25H19.125L24.875 1.625H42.125L47.875 10.25H59.375C60.9 10.25 62.3625 10.8558 63.4409 11.9341C64.5192 13.0125 65.125 14.475 65.125 16V47.625Z" stroke="white" stroke-width="3" stroke-linecap="round" stroke-linejoin="round"/>
<path d="M33.5 41.875C39.8513 41.875 45 36.7263 45 30.375C45 24.0237 39.8513 18.875 33.5 18.875C27.1487 18.875 22 24.0237 22 30.375C22 36.7263 27.1487 41.875 33.5 41.875Z" stroke="white" stroke-width="3" stroke-linecap="round" stroke-linejoin="round"/>
</svg>
