<svg width="70" height="70" viewBox="0 0 70 70" fill="none" xmlns="http://www.w3.org/2000/svg">
<g clip-path="url(#clip0_245_703)">
<mask id="mask0_245_703" style="mask-type:luminance" maskUnits="userSpaceOnUse" x="0" y="0" width="70" height="70">
<path d="M0 0H70V70H0V0Z" fill="white"/>
</mask>
<g mask="url(#mask0_245_703)">
<path fill-rule="evenodd" clip-rule="evenodd" d="M23.1385 35.0369L24.8865 33.3942H26.6465V32.8633C23.7267 32.3954 21.2857 30.891 20.0163 28.8558L19.9687 28.7677C19.9568 28.7552 19.9449 28.73 19.9449 28.7174C19.9449 28.6545 20.0044 28.6042 20.0758 28.6042H20.1116L20.1235 28.6167C21.0213 28.7929 22.0978 28.9086 23.2457 28.9086H23.7601C25.2795 28.8709 26.5131 28.3401 26.7512 27.6432L26.7155 27.6306C24.8603 27.3514 23.2813 26.7702 22.1692 26.013L22.1334 26.0004C22.0859 25.9627 22.0382 25.8998 22.0382 25.8242C22.0382 25.7111 22.1215 25.6356 22.2287 25.6356H22.2645C25.5914 25.6104 28.4755 24.0935 29.983 21.857L30.0187 21.8318C31.5738 22.1613 33.31 22.3375 35.1413 22.3375C37.1276 22.3375 39.0066 22.1236 40.6569 21.7438L40.7165 21.857C42.224 24.0935 45.108 25.6104 48.435 25.6356H48.4707C48.5779 25.6356 48.6612 25.7111 48.6612 25.8242C48.6612 25.8998 48.6137 25.9627 48.566 26.0004L48.5303 26.013C47.4181 26.7728 45.8368 27.3538 43.984 27.6306L43.9482 27.6432C44.1864 28.3375 45.42 28.8684 46.9394 28.9086H47.4539C48.6017 28.9086 49.6806 28.7954 50.5784 28.6167L50.5903 28.6042H50.626C50.6975 28.6042 50.757 28.6545 50.757 28.7174C50.757 28.73 50.7451 28.7552 50.7332 28.7677L50.6856 28.8558C49.4162 30.891 46.9751 32.3954 44.0554 32.8633V33.3942H45.8153L47.5634 35.0369L60.1164 35.0621L66.1345 40.5742C63.2981 46.7553 58.9304 52.7604 53.1981 57.8422C36.7441 72.4286 15.2628 74.0084 5.21275 61.3542C0.390133 55.2737 -0.926846 47.0069 0.845041 38.4609L8.94703 45.7541C9.41376 49.0924 10.6355 52.1617 12.6812 54.7428C20.3402 64.3631 36.5179 63.3139 48.8541 52.378C51.881 49.6987 54.3936 46.6647 56.344 43.4924L37.6539 43.4673V40.8005C37.6539 39.4974 36.6488 38.4358 35.4033 38.4358C34.1816 38.4358 33.1766 39.4974 33.1766 40.8005V43.4673L8.71838 43.4924L1.2523 36.7174C3.46709 28.0206 8.80408 19.1475 16.8084 12.0556C33.2623 -2.53072 54.7293 -4.09802 64.7818 8.54107C71.0405 16.4154 71.3881 27.9325 66.8037 39.0295L60.557 33.3791C62.124 26.6042 61.1667 19.9928 57.3252 15.165C49.6663 5.53468 33.4767 6.5838 21.1523 17.5173C15.4676 22.5614 11.5905 28.8306 9.82102 35.0621L23.1385 35.0369Z" fill="#0068B7"/>
</g>
</g>
<defs>
<clipPath id="clip0_245_703">
<rect width="70" height="70" fill="white"/>
</clipPath>
</defs>
</svg>
